<svg id="visual" viewBox="0 0 960 540" width="960" height="540" xmlns="http://www.w3.org/2000/svg" xmlns:xlink="http://www.w3.org/1999/xlink" version="1.1"><rect x="0" y="0" width="960" height="540" fill="#ffffff"></rect><defs><linearGradient id="grad1_0" x1="43.8%" y1="100%" x2="100%" y2="0%"><stop offset="14.444444444444446%" stop-color="#b59410" stop-opacity="1"></stop><stop offset="85.55555555555554%" stop-color="#b59410" stop-opacity="1"></stop></linearGradient></defs><defs><linearGradient id="grad1_1" x1="43.8%" y1="100%" x2="100%" y2="0%"><stop offset="14.444444444444446%" stop-color="#b59410" stop-opacity="1"></stop><stop offset="85.55555555555554%" stop-color="#c2a23d" stop-opacity="1"></stop></linearGradient></defs><defs><linearGradient id="grad1_2" x1="43.8%" y1="100%" x2="100%" y2="0%"><stop offset="14.444444444444446%" stop-color="#cfb15e" stop-opacity="1"></stop><stop offset="85.55555555555554%" stop-color="#c2a23d" stop-opacity="1"></stop></linearGradient></defs><defs><linearGradient id="grad1_3" x1="43.8%" y1="100%" x2="100%" y2="0%"><stop offset="14.444444444444446%" stop-color="#cfb15e" stop-opacity="1"></stop><stop offset="85.55555555555554%" stop-color="#dbc07e" stop-opacity="1"></stop></linearGradient></defs><defs><linearGradient id="grad1_4" x1="43.8%" y1="100%" x2="100%" y2="0%"><stop offset="14.444444444444446%" stop-color="#e5cf9e" stop-opacity="1"></stop><stop offset="85.55555555555554%" stop-color="#dbc07e" stop-opacity="1"></stop></linearGradient></defs><defs><linearGradient id="grad1_5" x1="43.8%" y1="100%" x2="100%" y2="0%"><stop offset="14.444444444444446%" stop-color="#e5cf9e" stop-opacity="1"></stop><stop offset="85.55555555555554%" stop-color="#efdfbe" stop-opacity="1"></stop></linearGradient></defs><defs><linearGradient id="grad1_6" x1="43.8%" y1="100%" x2="100%" y2="0%"><stop offset="14.444444444444446%" stop-color="#f8efde" stop-opacity="1"></stop><stop offset="85.55555555555554%" stop-color="#efdfbe" stop-opacity="1"></stop></linearGradient></defs><defs><linearGradient id="grad1_7" x1="43.8%" y1="100%" x2="100%" y2="0%"><stop offset="14.444444444444446%" stop-color="#f8efde" stop-opacity="1"></stop><stop offset="85.55555555555554%" stop-color="#ffffff" stop-opacity="1"></stop></linearGradient></defs><defs><linearGradient id="grad2_0" x1="0%" y1="100%" x2="56.3%" y2="0%"><stop offset="14.444444444444446%" stop-color="#b59410" stop-opacity="1"></stop><stop offset="85.55555555555554%" stop-color="#b59410" stop-opacity="1"></stop></linearGradient></defs><defs><linearGradient id="grad2_1" x1="0%" y1="100%" x2="56.3%" y2="0%"><stop offset="14.444444444444446%" stop-color="#c2a23d" stop-opacity="1"></stop><stop offset="85.55555555555554%" stop-color="#b59410" stop-opacity="1"></stop></linearGradient></defs><defs><linearGradient id="grad2_2" x1="0%" y1="100%" x2="56.3%" y2="0%"><stop offset="14.444444444444446%" stop-color="#c2a23d" stop-opacity="1"></stop><stop offset="85.55555555555554%" stop-color="#cfb15e" stop-opacity="1"></stop></linearGradient></defs><defs><linearGradient id="grad2_3" x1="0%" y1="100%" x2="56.3%" y2="0%"><stop offset="14.444444444444446%" stop-color="#dbc07e" stop-opacity="1"></stop><stop offset="85.55555555555554%" stop-color="#cfb15e" stop-opacity="1"></stop></linearGradient></defs><defs><linearGradient id="grad2_4" x1="0%" y1="100%" x2="56.3%" y2="0%"><stop offset="14.444444444444446%" stop-color="#dbc07e" stop-opacity="1"></stop><stop offset="85.55555555555554%" stop-color="#e5cf9e" stop-opacity="1"></stop></linearGradient></defs><defs><linearGradient id="grad2_5" x1="0%" y1="100%" x2="56.3%" y2="0%"><stop offset="14.444444444444446%" stop-color="#efdfbe" stop-opacity="1"></stop><stop offset="85.55555555555554%" stop-color="#e5cf9e" stop-opacity="1"></stop></linearGradient></defs><defs><linearGradient id="grad2_6" x1="0%" y1="100%" x2="56.3%" y2="0%"><stop offset="14.444444444444446%" stop-color="#efdfbe" stop-opacity="1"></stop><stop offset="85.55555555555554%" stop-color="#f8efde" stop-opacity="1"></stop></linearGradient></defs><defs><linearGradient id="grad2_7" x1="0%" y1="100%" x2="56.3%" y2="0%"><stop offset="14.444444444444446%" stop-color="#ffffff" stop-opacity="1"></stop><stop offset="85.55555555555554%" stop-color="#f8efde" stop-opacity="1"></stop></linearGradient></defs><g transform="translate(960, 540)"><path d="M-405 0C-372.3 -33.7 -339.6 -67.4 -330 -107.2C-320.4 -147.1 -334 -193 -323.6 -235.1C-313.2 -277.2 -279 -315.4 -238.1 -327.7C-197.1 -339.9 -149.6 -326.2 -108.8 -334.8C-68 -343.3 -34 -374.2 0 -405L0 0Z" fill="#fbf7ee"></path><path d="M-354.4 0C-325.8 -29.5 -297.1 -59 -288.8 -93.8C-280.4 -128.7 -292.2 -168.9 -283.2 -205.7C-274.1 -242.5 -244.1 -276 -208.3 -286.7C-172.5 -297.4 -130.9 -285.4 -95.2 -292.9C-59.5 -300.4 -29.7 -327.4 0 -354.4L0 0Z" fill="#f3e7ce"></path><path d="M-303.7 0C-279.2 -25.3 -254.7 -50.5 -247.5 -80.4C-240.3 -110.3 -250.5 -144.8 -242.7 -176.3C-234.9 -207.9 -209.2 -236.6 -178.5 -245.7C-147.8 -254.9 -112.2 -244.7 -81.6 -251.1C-51 -257.5 -25.5 -280.6 0 -303.7L0 0Z" fill="#ead7ae"></path><path d="M-253.1 0C-232.7 -21.1 -212.2 -42.1 -206.3 -67C-200.3 -91.9 -208.7 -120.6 -202.3 -146.9C-195.8 -173.2 -174.4 -197.1 -148.8 -204.8C-123.2 -212.4 -93.5 -203.9 -68 -209.2C-42.5 -214.6 -21.2 -233.9 0 -253.1L0 0Z" fill="#e0c88e"></path><path d="M-202.5 0C-186.1 -16.8 -169.8 -33.7 -165 -53.6C-160.2 -73.5 -167 -96.5 -161.8 -117.6C-156.6 -138.6 -139.5 -157.7 -119 -163.8C-98.6 -170 -74.8 -163.1 -54.4 -167.4C-34 -171.7 -17 -187.1 0 -202.5L0 0Z" fill="#d5b86e"></path><path d="M-151.9 0C-139.6 -12.6 -127.3 -25.3 -123.8 -40.2C-120.2 -55.1 -125.2 -72.4 -121.4 -88.2C-117.5 -103.9 -104.6 -118.3 -89.3 -122.9C-73.9 -127.5 -56.1 -122.3 -40.8 -125.5C-25.5 -128.8 -12.7 -140.3 0 -151.9L0 0Z" fill="#c9aa4e"></path><path d="M-101.2 0C-93.1 -8.4 -84.9 -16.8 -82.5 -26.8C-80.1 -36.8 -83.5 -48.3 -80.9 -58.8C-78.3 -69.3 -69.7 -78.9 -59.5 -81.9C-49.3 -85 -37.4 -81.6 -27.2 -83.7C-17 -85.8 -8.5 -93.5 0 -101.2L0 0Z" fill="#bc9b2a"></path><path d="M-50.6 0C-46.5 -4.2 -42.4 -8.4 -41.3 -13.4C-40.1 -18.4 -41.7 -24.1 -40.5 -29.4C-39.2 -34.6 -34.9 -39.4 -29.8 -41C-24.6 -42.5 -18.7 -40.8 -13.6 -41.8C-8.5 -42.9 -4.2 -46.8 0 -50.6L0 0Z" fill="#b59410"></path></g><g transform="translate(0, 0)"><path d="M405 0C396.4 39.8 387.8 79.7 378.5 123C369.3 166.3 359.4 213.1 327.7 238.1C296 263 242.5 266.2 204.5 281.5C166.6 296.9 144.3 324.5 112.8 347.1C81.3 369.8 40.6 387.4 0 405L0 0Z" fill="#fbf7ee"></path><path d="M354.4 0C346.8 34.9 339.3 69.7 331.2 107.6C323.1 145.5 314.4 186.5 286.7 208.3C259 230.1 212.2 232.9 179 246.3C145.8 259.8 126.3 284 98.7 303.7C71.1 323.5 35.6 339 0 354.4L0 0Z" fill="#f3e7ce"></path><path d="M303.8 0C297.3 29.9 290.8 59.8 283.9 92.2C276.9 124.7 269.5 159.8 245.7 178.5C222 197.3 181.8 199.6 153.4 211.2C125 222.7 108.2 243.4 84.6 260.4C61 277.3 30.5 290.5 0 303.8L0 0Z" fill="#ead7ae"></path><path d="M253.1 0C247.7 24.9 242.4 49.8 236.6 76.9C230.8 103.9 224.6 133.2 204.8 148.8C185 164.4 151.5 166.4 127.8 176C104.1 185.6 90.2 202.8 70.5 217C50.8 231.1 25.4 242.1 0 253.1L0 0Z" fill="#e0c88e"></path><path d="M202.5 0C198.2 19.9 193.9 39.8 189.3 61.5C184.6 83.2 179.7 106.5 163.8 119C148 131.5 121.2 133.1 102.3 140.8C83.3 148.5 72.1 162.3 56.4 173.6C40.6 184.9 20.3 193.7 0 202.5L0 0Z" fill="#d5b86e"></path><path d="M151.9 0C148.6 14.9 145.4 29.9 141.9 46.1C138.5 62.4 134.8 79.9 122.9 89.3C111 98.6 90.9 99.8 76.7 105.6C62.5 111.3 54.1 121.7 42.3 130.2C30.5 138.7 15.2 145.3 0 151.9L0 0Z" fill="#c9aa4e"></path><path d="M101.3 0C99.1 10 96.9 19.9 94.6 30.7C92.3 41.6 89.8 53.3 81.9 59.5C74 65.8 60.6 66.5 51.1 70.4C41.7 74.2 36.1 81.1 28.2 86.8C20.3 92.4 10.2 96.8 0 101.3L0 0Z" fill="#bc9b2a"></path><path d="M50.6 0C49.5 5 48.5 10 47.3 15.4C46.2 20.8 44.9 26.6 41 29.8C37 32.9 30.3 33.3 25.6 35.2C20.8 37.1 18 40.6 14.1 43.4C10.2 46.2 5.1 48.4 0 50.6L0 0Z" fill="#b59410"></path></g></svg>